Crispy Wide Medium-MaxGrade-minYOPQ.ufo
<glyph name="exclam" format="2">
  <advance width="1127"/>
  <unicode hex="0021"/>
  <outline>
    <contour>
      <point x="276" y="185" type="line" identifier="1m237t4hyw"/>
      <point x="831" y="185" type="line" identifier="S4rO5KuHiL"/>
      <point x="831" y="1600" type="line" identifier="zfocDyDTCM"/>
      <point x="276" y="1600" type="line" identifier="v7N4yg5XNk"/>
    </contour>
    <component base="period" xOffset="26" yOffset="-1"/>
  </outline>
</glyph>
<glyph name="asterisk" format="2">
  <advance width="932"/>
  <unicode hex="002A"/>
  <outline>
    <contour>
      <point x="196" y="839" type="line"/>
      <point x="464" y="1203" type="line"/>
      <point x="739" y="835" type="line"/>
      <point x="864" y="898" type="line"/>
      <point x="634" y="1208" type="line"/>
      <point x="919" y="1281" type="line"/>
      <point x="919" y="1283" type="line"/>
      <point x="633" y="1210" type="line"/>
      <point x="633" y="1600" type="line"/>
      <point x="291" y="1600" type="line"/>
      <point x="291" y="1210" type="line"/>
      <point x="7" y="1283" type="line"/>
      <point x="7" y="1281" type="line"/>
      <point x="290" y="1208" type="line"/>
      <point x="72" y="900" type="line"/>
    </contour>
  </outline>
</glyph>
<glyph name="two" format="2">
  <advance width="4573"/>
  <unicode hex="0032"/>
  <outline>
    <contour>
      <point x="404" y="0" type="line"/>
      <point x="4236" y="0" type="line" identifier="pzdvPTirLJ"/>
      <point x="4236" y="2" type="line"/>
      <point x="961" y="2" type="line"/>
      <point x="961" y="798" type="line"/>
      <point x="4227" y="798" type="line" identifier="yyb1NCCI5w"/>
      <point x="4227" y="1600" type="line" identifier="5FogYRSgkk"/>
      <point x="408" y="1600" type="line" identifier="svlFvrau4c"/>
      <point x="408" y="1066" type="line" identifier="LQ9fBsTy9K"/>
      <point x="963" y="1066" type="line"/>
      <point x="963" y="1598" type="line"/>
      <point x="3672" y="1598" type="line"/>
      <point x="3672" y="800" type="line"/>
      <point x="404" y="800" type="line" identifier="teVKnpBcVb"/>
    </contour>
  </outline>
</glyph>
<glyph name="four" format="2">
  <advance width="4218"/>
  <unicode hex="0034"/>
  <outline>
    <contour>
      <point x="3214" y="0" type="line"/>
      <point x="3769" y="0" type="line"/>
      <point x="3769" y="799" type="line"/>
      <point x="4197" y="799" type="line"/>
      <point x="4197" y="801" type="line"/>
      <point x="3769" y="801" type="line"/>
      <point x="3769" y="1600" type="line"/>
      <point x="3214" y="1600" type="line"/>
      <point x="3214" y="801" type="line"/>
      <point x="764" y="801" type="line"/>
      <point x="764" y="1015" type="line"/>
      <point x="975" y="1600" type="line"/>
      <point x="420" y="1600" type="line"/>
      <point x="209" y="1015" type="line"/>
      <point x="209" y="799" type="line"/>
      <point x="3214" y="799" type="line"/>
    </contour>
  </outline>
</glyph>
<glyph name="eight" format="2">
  <advance width="4831"/>
  <unicode hex="0038"/>
  <outline>
    <contour>
      <point x="3641" y="799" type="line"/>
      <point x="3988" y="537" type="line"/>
      <point x="3988" y="2" type="line"/>
      <point x="843" y="2" type="line"/>
      <point x="843" y="537" type="line"/>
      <point x="1191" y="799" type="line"/>
    </contour>
    <contour>
      <point x="4190" y="788" type="line"/>
      <point x="4190" y="812" type="line"/>
      <point x="4540" y="1059" type="line"/>
      <point x="4540" y="1600" type="line"/>
      <point x="291" y="1600" type="line"/>
      <point x="291" y="1059" type="line"/>
      <point x="642" y="812" type="line"/>
      <point x="642" y="788" type="line"/>
      <point x="288" y="527" type="line"/>
      <point x="288" y="0" type="line"/>
      <point x="4543" y="0" type="line"/>
      <point x="4543" y="527" type="line"/>
    </contour>
    <contour>
      <point x="1191" y="801" type="line"/>
      <point x="846" y="1049" type="line"/>
      <point x="846" y="1598" type="line"/>
      <point x="3985" y="1598" type="line"/>
      <point x="3985" y="1049" type="line"/>
      <point x="3641" y="801" type="line"/>
    </contour>
  </outline>
</glyph>
<glyph name="A" format="2">
  <advance width="4588"/>
  <unicode hex="0041"/>
  <outline>
    <contour>
      <point x="4114" y="1600" type="line" smooth="yes"/>
      <point x="850" y="1600" type="line" smooth="yes"/>
      <point x="110" y="21" type="line" smooth="yes"/>
      <point x="629" y="-68" type="line" smooth="yes"/>
      <point x="1354" y="1598" type="line"/>
      <point x="3559" y="1598" type="line" smooth="yes"/>
      <point x="3559" y="0" type="line"/>
      <point x="4114" y="0" type="line" smooth="yes"/>
    </contour>
    <contour>
      <point x="759" y="798" type="line"/>
      <point x="3932" y="798" type="line"/>
      <point x="3932" y="800" type="line"/>
      <point x="759" y="800" type="line"/>
    </contour>
  </outline>
</glyph>
<glyph name="B" format="2">
  <advance width="4977"/>
  <unicode hex="0042"/>
  <outline>
    <contour>
      <point x="474" y="0" type="line"/>
      <point x="4200" y="0" type="line"/>
      <point x="4663" y="461" type="line"/>
      <point x="4663" y="801" type="line"/>
      <point x="3716" y="801" type="line"/>
      <point x="4019" y="1124" type="line"/>
      <point x="4019" y="1600" type="line"/>
      <point x="474" y="1600" type="line"/>
    </contour>
    <contour>
      <point x="1029" y="2" type="line"/>
      <point x="1029" y="799" type="line"/>
      <point x="4108" y="799" type="line"/>
      <point x="4108" y="443" type="line"/>
      <point x="3688" y="2" type="line"/>
    </contour>
    <contour>
      <point x="1029" y="801" type="line"/>
      <point x="1029" y="1598" type="line"/>
      <point x="3464" y="1598" type="line"/>
      <point x="3464" y="1115" type="line"/>
      <point x="3163" y="801" type="line"/>
    </contour>
  </outline>
</glyph>
<glyph name="P" format="2">
  <advance width="4480"/>
  <unicode hex="0050"/>
  <outline>
    <contour>
      <point x="474" y="0" type="line" identifier="EG08jqU5fb"/>
      <point x="1028" y="0" type="line" identifier="osRzIFK2Cu"/>
      <point x="1028" y="652" type="line" identifier="hIFVovVRwe"/>
      <point x="4189" y="652" type="line" identifier="Tt6D8zYZmU"/>
      <point x="4189" y="1600" type="line" identifier="6xW04auDFu"/>
      <point x="474" y="1600" type="line" identifier="eETO5GBD5v"/>
    </contour>
    <contour>
      <point x="1028" y="654" type="line" identifier="PIBVN1PGv1"/>
      <point x="1028" y="1598" type="line" identifier="IZIZQr2gYJ"/>
      <point x="3635" y="1598" type="line" identifier="2c4LCF1E1R"/>
      <point x="3635" y="654" type="line" identifier="1WCnzth1GX"/>
    </contour>
  </outline>
</glyph>
<glyph name="S" format="2">
  <advance width="4398"/>
  <unicode hex="0053"/>
  <outline>
    <contour>
      <point x="296" y="0" type="line" identifier="09VlJ0BjUX"/>
      <point x="3638" y="0" type="line" identifier="EagWihqFM8"/>
      <point x="4104" y="457" type="line"/>
      <point x="4104" y="801" type="line" identifier="KfNuQA7eZe"/>
      <point x="848" y="801" type="line" identifier="At364YZFEy"/>
      <point x="848" y="1153" type="line"/>
      <point x="1268" y="1598" type="line"/>
      <point x="3416" y="1598" type="line" identifier="3ZUkG35meB"/>
      <point x="3416" y="1158" type="line" identifier="DTOJhFIl15"/>
      <point x="3970" y="1158" type="line" identifier="9KDcrfQ5Ui"/>
      <point x="3970" y="1600" type="line" identifier="SaF9ojRFrW"/>
      <point x="757" y="1600" type="line"/>
      <point x="294" y="1135" type="line"/>
      <point x="294" y="799" type="line" identifier="3sQ8t8BZ6b"/>
      <point x="3550" y="799" type="line" identifier="yiV6OCBLHg"/>
      <point x="3550" y="442" type="line"/>
      <point x="3128" y="2" type="line" identifier="9kdl9SYsn8"/>
      <point x="850" y="2" type="line" identifier="yZDWuX8LLe"/>
      <point x="850" y="444" type="line" identifier="jYb9001DTm"/>
      <point x="296" y="444" type="line" identifier="ho4DrS0rdW"/>
    </contour>
  </outline>
</glyph>
<glyph name="W" format="2">
  <advance width="5237"/>
  <unicode hex="0057"/>
  <outline>
    <contour>
      <point x="2153" y="1600" type="line" identifier="0Dn4Xpf57M"/>
      <point x="1529" y="2" type="line"/>
      <point x="1200" y="2" type="line"/>
      <point x="509" y="1632" type="line"/>
      <point x="13" y="1535" type="line"/>
      <point x="654" y="0" type="line"/>
      <point x="1784" y="0" type="line"/>
      <point x="2403" y="1597" type="line"/>
      <point x="2829" y="1597" type="line" identifier="9aKZPM0HPh"/>
      <point x="3449" y="0" type="line"/>
      <point x="4579" y="0" type="line"/>
      <point x="5224" y="1535" type="line"/>
      <point x="4727" y="1630" type="line"/>
      <point x="4032" y="2" type="line"/>
      <point x="3703" y="2" type="line"/>
      <point x="3079" y="1600" type="line" identifier="spdoeeCFft"/>
    </contour>
  </outline>
</glyph>
<glyph name="braceleft" format="2">
  <advance width="1922"/>
  <unicode hex="007B"/>
  <outline>
    <contour>
      <point x="890" y="1109" type="line"/>
      <point x="890" y="1786" type="line"/>
      <point x="1794" y="1786" type="line"/>
      <point x="1794" y="1788" type="line"/>
      <point x="339" y="1788" type="line"/>
      <point x="339" y="1110" type="line"/>
      <point x="64" y="811" type="line"/>
      <point x="64" y="789" type="line"/>
      <point x="339" y="490" type="line"/>
      <point x="339" y="-188" type="line"/>
      <point x="1789" y="-188" type="line"/>
      <point x="1789" y="-186" type="line"/>
      <point x="890" y="-186" type="line"/>
      <point x="890" y="491" type="line"/>
      <point x="615" y="789" type="line"/>
      <point x="615" y="811" type="line"/>
    </contour>
  </outline>
</glyph>
<glyph name="B.skinnymiddle" format="2">
  <advance width="5267"/>
  <outline>
    <contour>
      <point x="573" y="0" type="line" identifier="hvY9r8RmLr"/>
      <point x="4252" y="0" type="line" identifier="9QFpw7nfq7"/>
      <point x="4834" y="477" type="line"/>
      <point x="4834" y="800" type="line" identifier="543PerILpr"/>
      <point x="4031" y="800" type="line" identifier="zhomauHW30"/>
      <point x="4453" y="1205" type="line"/>
      <point x="4453" y="1600" type="line" identifier="FaP204GrdB"/>
      <point x="573" y="1600" type="line" identifier="JEev70GAj6"/>
    </contour>
    <contour>
      <point x="1053" y="2" type="line" identifier="jaMSiLrCua"/>
      <point x="1053" y="799" type="line" identifier="XSrxNd2axx"/>
      <point x="4353" y="799" type="line" identifier="lsRGatjQja"/>
      <point x="4353" y="494" type="line"/>
      <point x="3883" y="2" type="line" identifier="xhlDJ3CjD5"/>
    </contour>
    <contour>
      <point x="1053" y="801" type="line" identifier="By7dfMihfe"/>
      <point x="1053" y="1598" type="line" identifier="1p5hKrurVy"/>
      <point x="4018" y="1598" type="line" identifier="Qby8aMtF2X"/>
      <point x="4018" y="1171" type="line"/>
      <point x="3598" y="801" type="line" identifier="xpxyvIzPoc"/>
    </contour>
  </outline>
</glyph>
<glyph name="G.wide" format="2">
  <advance width="4737"/>
  <outline>
    <contour>
      <point x="294" y="0" type="line" identifier="7lPhzTnk2Z"/>
      <point x="4362" y="0" type="line" identifier="qJVLZGnkwh"/>
      <point x="4362" y="900" type="line" identifier="uek1NNj7De"/>
      <point x="2354" y="900" type="line" identifier="qcvimxjndX"/>
      <point x="2354" y="898" type="line" identifier="EARaY3Su65"/>
      <point x="3808" y="898" type="line" identifier="4m6dHLVhZq"/>
      <point x="3808" y="2" type="line" identifier="Y750RHTvDj"/>
      <point x="849" y="2" type="line" identifier="L2LsGnXiZ2"/>
      <point x="849" y="1139" type="line" identifier="sUWsr03vF4"/>
      <point x="1270" y="1598" type="line" identifier="dbOUe6OhxL"/>
      <point x="4354" y="1598" type="line" identifier="5BjRbcud80"/>
      <point x="4354" y="1600" type="line" identifier="9eJelv8BOw"/>
      <point x="750" y="1600" type="line" identifier="lfZev3ICaC"/>
      <point x="294" y="1122" type="line" identifier="V1EWIdPahq"/>
    </contour>
  </outline>
</glyph>
<glyph name="I.narrow" format="2">
  <advance width="1626"/>
  <outline>
    <contour>
      <point x="1054" y="1" type="line" identifier="1m237t4hyw"/>
      <point x="1054" y="1599" type="line" identifier="v7N4yg5XNk"/>
      <point x="573" y="1599" type="line" identifier="zfocDyDTCM"/>
      <point x="573" y="1" type="line" identifier="S4rO5KuHiL"/>
    </contour>
  </outline>
</glyph>
<glyph name="N.new" format="2">
  <advance width="4709"/>
  <outline>
    <contour>
      <point x="4045" y="0" type="line"/>
      <point x="4045" y="1600" type="line"/>
      <point x="3565" y="1600" type="line"/>
      <point x="3565" y="581" type="line"/>
      <point x="3730" y="581" type="line"/>
      <point x="1333" y="1599" type="line"/>
      <point x="1053" y="1600" type="line"/>
      <point x="573" y="1600" type="line"/>
      <point x="573" y="0" type="line"/>
      <point x="1053" y="0" type="line"/>
      <point x="1053" y="1420" type="line"/>
      <point x="1161" y="1420" type="line"/>
      <point x="3565" y="465" type="line"/>
      <point x="3565" y="0" type="line"/>
    </contour>
  </outline>
</glyph>
<glyph name="S.wideskinny" format="2">
  <advance width="4962"/>
  <outline>
    <contour>
      <point x="434" y="0" type="line" identifier="09VlJ0BjUX"/>
      <point x="4004" y="0" type="line" identifier="EagWihqFM8"/>
      <point x="4529" y="481" type="line"/>
      <point x="4529" y="800" type="line" identifier="KfNuQA7eZe"/>
      <point x="910" y="800" type="line" identifier="At364YZFEy"/>
      <point x="910" y="1096" type="line"/>
      <point x="1381" y="1597" type="line"/>
      <point x="4517" y="1597" type="line" identifier="3ZUkG35meB"/>
      <point x="4517" y="1599" type="line" identifier="SaF9ojRFrW"/>
      <point x="962" y="1599" type="line"/>
      <point x="435" y="1114" type="line"/>
      <point x="435" y="798" type="line" identifier="3sQ8t8BZ6b"/>
      <point x="4048" y="798" type="line" identifier="yiV6OCBLHg"/>
      <point x="4048" y="497" type="line"/>
      <point x="3578" y="2" type="line" identifier="9kdl9SYsn8"/>
      <point x="434" y="2" type="line" identifier="yZDWuX8LLe"/>
    </contour>
  </outline>
</glyph>
<glyph name="U.alt" format="2">
  <advance width="4940"/>
  <outline>
    <contour>
      <point x="4103" y="1600" type="line" smooth="yes"/>
      <point x="4103" y="2" type="line"/>
      <point x="805" y="2" type="line" smooth="yes"/>
      <point x="805" y="1600" type="line"/>
      <point x="325" y="1600" type="line" smooth="yes"/>
      <point x="325" y="0" type="line" smooth="yes"/>
      <point x="4584" y="0" type="line" smooth="yes"/>
      <point x="4584" y="1600" type="line" smooth="yes"/>
    </contour>
  </outline>
</glyph>
<glyph name="Y.alt" format="2">
  <advance width="4174"/>
  <outline>
    <contour>
      <point x="818" y="0" type="line" smooth="yes"/>
      <point x="3356" y="0" type="line" smooth="yes"/>
      <point x="4088" y="1540" type="line" smooth="yes"/>
      <point x="3570" y="1634" type="line" smooth="yes"/>
      <point x="2803" y="2" type="line"/>
      <point x="1344" y="2" type="line" smooth="yes"/>
      <point x="577" y="1634" type="line"/>
      <point x="87" y="1539" type="line" smooth="yes"/>
    </contour>
    <contour>
      <point x="2861" y="139" type="line"/>
      <point x="2614" y="-400" type="line"/>
      <point x="3085" y="-588" type="line"/>
      <point x="3389" y="83" type="line"/>
    </contour>
  </outline>
</glyph>
<glyph name="Y.wideskinny" format="2">
  <advance width="5286"/>
  <outline>
    <contour>
      <point x="592" y="0" type="line"/>
      <point x="4713" y="0" type="line" identifier="oOtn61SmRY"/>
      <point x="4713" y="1600" type="line" identifier="8OglXgblhr"/>
      <point x="4232" y="1600" type="line" identifier="db0bPhBdaU"/>
      <point x="4232" y="801" type="line" identifier="MTAeavIVWY"/>
      <point x="1051" y="801" type="line" identifier="lggLiivmLt"/>
      <point x="1051" y="1600" type="line" identifier="UPaHY3UudR"/>
      <point x="571" y="1600" type="line" identifier="ZnCDQVdtyD"/>
      <point x="571" y="799" type="line" identifier="uqAJBjDIOT"/>
      <point x="4232" y="799" type="line" identifier="7JgTtdb0jg"/>
      <point x="4232" y="2" type="line"/>
      <point x="592" y="2" type="line"/>
    </contour>
  </outline>
</glyph>
<glyph name="eight.skinnymiddle" format="2">
  <advance width="5544"/>
  <outline>
    <contour>
      <point x="4102" y="799" type="line"/>
      <point x="4450" y="537" type="line"/>
      <point x="4450" y="2" type="line"/>
      <point x="1094" y="2" type="line"/>
      <point x="1094" y="537" type="line"/>
      <point x="1442" y="799" type="line"/>
    </contour>
    <contour>
      <point x="4518" y="793" type="line"/>
      <point x="4518" y="807" type="line"/>
      <point x="4927" y="1159" type="line"/>
      <point x="4927" y="1600" type="line"/>
      <point x="617" y="1600" type="line"/>
      <point x="617" y="1159" type="line"/>
      <point x="1026" y="807" type="line"/>
      <point x="1026" y="793" type="line"/>
      <point x="613" y="427" type="line"/>
      <point x="613" y="0" type="line"/>
      <point x="4931" y="0" type="line"/>
      <point x="4931" y="427" type="line"/>
    </contour>
    <contour>
      <point x="1442" y="801" type="line"/>
      <point x="1097" y="1049" type="line"/>
      <point x="1097" y="1598" type="line"/>
      <point x="4446" y="1598" type="line"/>
      <point x="4446" y="1049" type="line"/>
      <point x="4102" y="801" type="line"/>
    </contour>
  </outline>
</glyph>
<glyph name="six.wide" format="2">
  <advance width="4790"/>
  <outline>
    <contour>
      <point x="316" y="0" type="line" identifier="uiw6aBUf4P"/>
      <point x="4435" y="0" type="line" identifier="jtYkxiUX6G"/>
      <point x="4435" y="801" type="line" identifier="2G5L37c87I"/>
      <point x="870" y="801" type="line"/>
      <point x="870" y="1209" type="line"/>
      <point x="1324" y="1598" type="line"/>
      <point x="4367" y="1598" type="line"/>
      <point x="4367" y="1600" type="line" identifier="oGvEEuxnYv"/>
      <point x="770" y="1600" type="line" identifier="xR3pEHbMJx"/>
      <point x="316" y="1210" type="line" identifier="KnMArb0tv8"/>
    </contour>
    <contour>
      <point x="3880" y="799" type="line"/>
      <point x="3880" y="2" type="line"/>
      <point x="870" y="2" type="line"/>
      <point x="870" y="799" type="line"/>
    </contour>
  </outline>
</glyph>
